<svg width="211" height="47" viewBox="0 0 211 47" fill="none" xmlns="http://www.w3.org/2000/svg">
<path d="M18.5624 9.00501H22.9024V17.6459L22.6678 20.3047H22.9024C23.4237 19.4705 24.2187 18.7537 25.2874 18.1542C26.3561 17.5286 27.6334 17.2158 29.1191 17.2158C30.3442 17.2158 31.5042 17.4765 32.5989 17.9978C33.7198 18.4931 34.6973 19.1969 35.5314 20.1092C36.3655 21.0215 37.0302 22.1032 37.5254 23.3544C38.0207 24.5795 38.2683 25.9349 38.2683 27.4207C38.2683 28.9065 38.0207 30.2749 37.5254 31.5261C37.0302 32.7512 36.3655 33.8199 35.5314 34.7322C34.6973 35.6446 33.7198 36.3614 32.5989 36.8827C31.5042 37.378 30.3442 37.6256 29.1191 37.6256C27.6334 37.6256 26.3561 37.3258 25.2874 36.7263C24.2187 36.1007 23.4237 35.3709 22.9024 34.5368H22.6678V37H18.5624V9.00501ZM28.298 33.5984C29.0279 33.5984 29.7317 33.455 30.4094 33.1683C31.1132 32.8816 31.7127 32.4775 32.208 31.9562C32.7293 31.4088 33.1463 30.7572 33.4591 30.0013C33.7719 29.2453 33.9283 28.3852 33.9283 27.4207C33.9283 26.4563 33.7719 25.5961 33.4591 24.8402C33.1463 24.0842 32.7293 23.4456 32.208 22.9243C31.7127 22.3769 31.1132 21.9599 30.4094 21.6731C29.7317 21.3864 29.0279 21.243 28.298 21.243C27.5421 21.243 26.8253 21.3864 26.1476 21.6731C25.4699 21.9599 24.8704 22.3639 24.349 22.8852C23.8538 23.4065 23.4497 24.0582 23.137 24.8402C22.8242 25.5961 22.6678 26.4563 22.6678 27.4207C22.6678 28.3852 22.8242 29.2584 23.137 30.0404C23.4497 30.7963 23.8538 31.4349 24.349 31.9562C24.8704 32.4775 25.4699 32.8816 26.1476 33.1683C26.8253 33.455 27.5421 33.5984 28.298 33.5984ZM56.9534 32.4254C56.1454 33.9112 54.9985 35.1493 53.5127 36.1398C52.0269 37.1303 50.2023 37.6256 48.0388 37.6256C46.6052 37.6256 45.2758 37.378 44.0507 36.8827C42.8517 36.3614 41.809 35.6446 40.9228 34.7322C40.0365 33.8199 39.3458 32.7512 38.8505 31.5261C38.3553 30.2749 38.1077 28.9065 38.1077 27.4207C38.1077 26.0392 38.3422 24.7359 38.8114 23.5108C39.2806 22.2596 39.9323 21.1779 40.7664 20.2656C41.6266 19.3272 42.6562 18.5843 43.8552 18.0369C45.0543 17.4895 46.3836 17.2158 47.8433 17.2158C49.3291 17.2158 50.6454 17.4635 51.7924 17.9587C52.9653 18.454 53.9558 19.1447 54.7639 20.031C55.5719 20.9172 56.1845 21.9859 56.6015 23.2371C57.0447 24.4883 57.2662 25.8567 57.2662 27.3425C57.2662 27.4728 57.2662 27.5901 57.2662 27.6944C57.2402 27.8247 57.2271 27.942 57.2271 28.0463C57.2011 28.1506 57.188 28.2548 57.188 28.3591H42.4477C42.5259 29.2714 42.7474 30.0664 43.1123 30.7441C43.4773 31.4219 43.9204 31.9823 44.4417 32.4254C44.9891 32.8685 45.5886 33.1943 46.2403 33.4029C46.8919 33.6114 47.5305 33.7157 48.1561 33.7157C49.4073 33.7157 50.4369 33.4159 51.245 32.8164C52.053 32.2169 52.7177 31.474 53.239 30.5877L56.9534 32.4254ZM52.9262 25.0357C52.8741 24.6447 52.7438 24.2146 52.5352 23.7454C52.3528 23.2501 52.053 22.807 51.636 22.416C51.245 21.999 50.7236 21.6471 50.072 21.3603C49.4464 21.0736 48.6775 20.9303 47.7651 20.9303C46.514 20.9303 45.4322 21.3082 44.5199 22.0641C43.6337 22.794 43.0341 23.7845 42.7214 25.0357H52.9262ZM63.7619 35.9052L55.7857 17.8414H60.634L65.9123 30.5486H66.1078L71.2298 17.8414H76.039L64.0356 45.4454H59.4219L63.7619 35.9052ZM84.2043 17.2158C85.664 17.2158 87.0064 17.4765 88.2315 17.9978C89.4566 18.4931 90.5123 19.1969 91.3986 20.1092C92.2848 21.0215 92.9756 22.1032 93.4708 23.3544C93.9661 24.6056 94.2137 25.961 94.2137 27.4207C94.2137 28.8804 93.9661 30.2358 93.4708 31.487C92.9756 32.7382 92.2848 33.8199 91.3986 34.7322C90.5123 35.6446 89.4566 36.3614 88.2315 36.8827C87.0064 37.378 85.664 37.6256 84.2043 37.6256C82.7446 37.6256 81.4022 37.378 80.1771 36.8827C78.952 36.3614 77.8963 35.6446 77.0101 34.7322C76.1238 33.8199 75.4331 32.7382 74.9378 31.487C74.4426 30.2358 74.1949 28.8804 74.1949 27.4207C74.1949 25.961 74.4426 24.6056 74.9378 23.3544C75.4331 22.1032 76.1238 21.0215 77.0101 20.1092C77.8963 19.1969 78.952 18.4931 80.1771 17.9978C81.4022 17.4765 82.7446 17.2158 84.2043 17.2158ZM84.2043 33.5984C84.9342 33.5984 85.638 33.455 86.3157 33.1683C86.9934 32.8816 87.5929 32.4775 88.1142 31.9562C88.6616 31.4349 89.0917 30.7963 89.4045 30.0404C89.7173 29.2584 89.8737 28.3852 89.8737 27.4207C89.8737 26.4563 89.7173 25.5961 89.4045 24.8402C89.0917 24.0582 88.6616 23.4065 88.1142 22.8852C87.5929 22.3639 86.9934 21.9599 86.3157 21.6731C85.638 21.3864 84.9342 21.243 84.2043 21.243C83.4745 21.243 82.7707 21.3864 82.093 21.6731C81.4152 21.9599 80.8027 22.3639 80.2553 22.8852C79.734 23.4065 79.3169 24.0582 79.0041 24.8402C78.6913 25.5961 78.5349 26.4563 78.5349 27.4207C78.5349 28.3852 78.6913 29.2584 79.0041 30.0404C79.3169 30.7963 79.734 31.4349 80.2553 31.9562C80.8027 32.4775 81.4152 32.8816 82.093 33.1683C82.7707 33.455 83.4745 33.5984 84.2043 33.5984ZM98.8897 20.422H99.1243C99.6978 19.5096 100.506 18.7537 101.548 18.1542C102.617 17.5286 103.816 17.2158 105.146 17.2158C107.57 17.2158 109.381 17.9457 110.58 19.4054C111.779 20.839 112.379 22.7549 112.379 25.153V37H108.039V25.7394C108.039 24.0712 107.648 22.9113 106.866 22.2596C106.11 21.5819 105.106 21.243 103.855 21.243C103.099 21.243 102.435 21.3994 101.861 21.7122C101.288 22.025 100.793 22.4551 100.375 23.0025C99.9584 23.5238 99.6456 24.1364 99.4371 24.8402C99.2286 25.5179 99.1243 26.2347 99.1243 26.9906V37H94.7843V17.8414H98.8897V20.422ZM128.746 34.5368H128.512C127.991 35.3709 127.196 36.1007 126.127 36.7263C125.058 37.3258 123.781 37.6256 122.295 37.6256C121.07 37.6256 119.897 37.378 118.776 36.8827C117.681 36.3614 116.717 35.6446 115.883 34.7322C115.049 33.8199 114.384 32.7512 113.889 31.5261C113.394 30.2749 113.146 28.9065 113.146 27.4207C113.146 25.9349 113.394 24.5795 113.889 23.3544C114.384 22.1032 115.049 21.0215 115.883 20.1092C116.717 19.1969 117.681 18.4931 118.776 17.9978C119.897 17.4765 121.07 17.2158 122.295 17.2158C123.781 17.2158 125.058 17.5286 126.127 18.1542C127.196 18.7537 127.991 19.4705 128.512 20.3047H128.746L128.512 17.6459V9.00501H132.852V37H128.746V34.5368ZM123.116 33.5984C123.846 33.5984 124.55 33.455 125.228 33.1683C125.931 32.8816 126.531 32.4775 127.026 31.9562C127.547 31.4349 127.965 30.7963 128.277 30.0404C128.59 29.2584 128.746 28.3852 128.746 27.4207C128.746 26.4563 128.59 25.5961 128.277 24.8402C127.965 24.0582 127.547 23.4065 127.026 22.8852C126.531 22.3639 125.931 21.9599 125.228 21.6731C124.55 21.3864 123.846 21.243 123.116 21.243C122.36 21.243 121.643 21.3864 120.966 21.6731C120.288 21.9599 119.689 22.3769 119.167 22.9243C118.672 23.4456 118.268 24.0842 117.955 24.8402C117.642 25.5961 117.486 26.4563 117.486 27.4207C117.486 28.3852 117.642 29.2453 117.955 30.0013C118.268 30.7572 118.672 31.4088 119.167 31.9562C119.689 32.4775 120.288 32.8816 120.966 33.1683C121.643 33.455 122.36 33.5984 123.116 33.5984ZM141.962 37.6256C140.789 37.6256 139.734 37.4692 138.795 37.1564C137.857 36.8436 137.036 36.4396 136.332 35.9443C135.628 35.423 135.029 34.8365 134.533 34.1849C134.064 33.5332 133.699 32.8555 133.439 32.1517L137.349 30.5095C137.792 31.6304 138.43 32.4645 139.264 33.0119C140.099 33.5332 140.998 33.7939 141.962 33.7939C143.057 33.7939 143.917 33.5723 144.543 33.1292C145.168 32.6861 145.481 32.1908 145.481 31.6434C145.481 31.096 145.247 30.6268 144.777 30.2358C144.308 29.8188 143.422 29.4539 142.119 29.1411L139.382 28.4764C138.782 28.3461 138.17 28.1506 137.544 27.8899C136.945 27.6032 136.384 27.2513 135.863 26.8342C135.342 26.3911 134.911 25.8698 134.573 25.2703C134.26 24.6447 134.103 23.9148 134.103 23.0807C134.103 22.1423 134.299 21.3082 134.69 20.5784C135.107 19.8485 135.667 19.236 136.371 18.7407C137.075 18.2454 137.883 17.8675 138.795 17.6068C139.734 17.3462 140.724 17.2158 141.767 17.2158C142.627 17.2158 143.448 17.3071 144.23 17.4895C145.038 17.672 145.781 17.9457 146.459 18.3106C147.136 18.6755 147.736 19.1447 148.257 19.7182C148.805 20.2656 149.235 20.9172 149.548 21.6731L145.716 23.2762C145.351 22.4421 144.777 21.8426 143.995 21.4776C143.213 21.0866 142.418 20.8912 141.61 20.8912C141.245 20.8912 140.868 20.9433 140.477 21.0475C140.112 21.1257 139.773 21.2561 139.46 21.4385C139.173 21.5949 138.926 21.8035 138.717 22.0641C138.535 22.3248 138.443 22.6115 138.443 22.9243C138.443 23.4456 138.665 23.8627 139.108 24.1755C139.577 24.4622 140.281 24.7229 141.219 24.9575L144.152 25.7003C146.133 26.1956 147.58 26.9515 148.492 27.9681C149.43 28.9586 149.899 30.1316 149.899 31.487C149.899 32.3211 149.704 33.1031 149.313 33.833C148.948 34.5628 148.414 35.2145 147.71 35.7879C147.006 36.3614 146.159 36.8045 145.168 37.1173C144.204 37.4562 143.135 37.6256 141.962 37.6256ZM168.614 32.4254C167.806 33.9112 166.659 35.1493 165.173 36.1398C163.687 37.1303 161.862 37.6256 159.699 37.6256C158.265 37.6256 156.936 37.378 155.711 36.8827C154.512 36.3614 153.469 35.6446 152.583 34.7322C151.697 33.8199 151.006 32.7512 150.511 31.5261C150.015 30.2749 149.768 28.9065 149.768 27.4207C149.768 26.0392 150.002 24.7359 150.472 23.5108C150.941 22.2596 151.592 21.1779 152.427 20.2656C153.287 19.3272 154.316 18.5843 155.515 18.0369C156.714 17.4895 158.044 17.2158 159.503 17.2158C160.989 17.2158 162.306 17.4635 163.452 17.9587C164.625 18.454 165.616 19.1447 166.424 20.031C167.232 20.9172 167.845 21.9859 168.262 23.2371C168.705 24.4883 168.926 25.8567 168.926 27.3425C168.926 27.4728 168.926 27.5901 168.926 27.6944C168.9 27.8247 168.887 27.942 168.887 28.0463C168.861 28.1506 168.848 28.2548 168.848 28.3591H154.108C154.186 29.2714 154.408 30.0664 154.772 30.7441C155.137 31.4219 155.581 31.9823 156.102 32.4254C156.649 32.8685 157.249 33.1943 157.9 33.4029C158.552 33.6114 159.191 33.7157 159.816 33.7157C161.067 33.7157 162.097 33.4159 162.905 32.8164C163.713 32.2169 164.378 31.474 164.899 30.5877L168.614 32.4254ZM164.586 25.0357C164.534 24.6447 164.404 24.2146 164.195 23.7454C164.013 23.2501 163.713 22.807 163.296 22.416C162.905 21.999 162.384 21.6471 161.732 21.3603C161.107 21.0736 160.338 20.9303 159.425 20.9303C158.174 20.9303 157.092 21.3082 156.18 22.0641C155.294 22.794 154.694 23.7845 154.381 25.0357H164.586ZM173.966 20.422H174.201C174.774 19.5096 175.582 18.7537 176.625 18.1542C177.694 17.5286 178.893 17.2158 180.222 17.2158C182.646 17.2158 184.458 17.9457 185.657 19.4054C186.856 20.839 187.455 22.7549 187.455 25.153V37H183.115V25.7394C183.115 24.0712 182.724 22.9113 181.942 22.2596C181.186 21.5819 180.183 21.243 178.932 21.243C178.176 21.243 177.511 21.3994 176.938 21.7122C176.364 22.025 175.869 22.4551 175.452 23.0025C175.035 23.5238 174.722 24.1364 174.514 24.8402C174.305 25.5179 174.201 26.2347 174.201 26.9906V37H169.861V17.8414H173.966V20.422ZM203.823 34.5368H203.588C203.067 35.3709 202.272 36.1007 201.203 36.7263C200.135 37.3258 198.857 37.6256 197.372 37.6256C196.146 37.6256 194.974 37.378 193.853 36.8827C192.758 36.3614 191.793 35.6446 190.959 34.7322C190.125 33.8199 189.461 32.7512 188.965 31.5261C188.47 30.2749 188.222 28.9065 188.222 27.4207C188.222 25.9349 188.47 24.5795 188.965 23.3544C189.461 22.1032 190.125 21.0215 190.959 20.1092C191.793 19.1969 192.758 18.4931 193.853 17.9978C194.974 17.4765 196.146 17.2158 197.372 17.2158C198.857 17.2158 200.135 17.5286 201.203 18.1542C202.272 18.7537 203.067 19.4705 203.588 20.3047H203.823L203.588 17.6459V9.00501H207.928V37H203.823V34.5368ZM198.193 33.5984C198.923 33.5984 199.626 33.455 200.304 33.1683C201.008 32.8816 201.607 32.4775 202.103 31.9562C202.624 31.4349 203.041 30.7963 203.354 30.0404C203.667 29.2584 203.823 28.3852 203.823 27.4207C203.823 26.4563 203.667 25.5961 203.354 24.8402C203.041 24.0582 202.624 23.4065 202.103 22.8852C201.607 22.3639 201.008 21.9599 200.304 21.6731C199.626 21.3864 198.923 21.243 198.193 21.243C197.437 21.243 196.72 21.3864 196.042 21.6731C195.365 21.9599 194.765 22.3769 194.244 22.9243C193.748 23.4456 193.344 24.0842 193.032 24.8402C192.719 25.5961 192.562 26.4563 192.562 27.4207C192.562 28.3852 192.719 29.2453 193.032 30.0013C193.344 30.7572 193.748 31.4088 194.244 31.9562C194.765 32.4775 195.365 32.8816 196.042 33.1683C196.72 33.455 197.437 33.5984 198.193 33.5984Z" fill="black"/>
<path fill-rule="evenodd" clip-rule="evenodd" d="M4.48568 9.51623L3.70879e-05 9.5657L0.0782453 17.2742L4.56357 17.2235C5.35017 17.2151 5.7832 18.1803 5.27399 18.8107L2.44211 22.3138L8.04362 27.2988L10.8743 23.7961C15.4547 18.1284 11.566 9.43685 4.48568 9.51623Z" fill="#0144E4"/>
<path fill-rule="evenodd" clip-rule="evenodd" d="M4.48565 19.7205L0 19.77L0.0782082 27.4785L4.56353 27.4278C5.35013 27.4194 5.78316 28.3846 5.27395 29.015L2.44208 32.5181L8.04359 37.5031L10.8743 34.0004C15.4546 28.3327 11.5659 19.6412 4.48565 19.7205Z" fill="#3A74FF"/>
</svg>
