<svg width="116" height="41" viewBox="0 0 116 41" fill="none" xmlns="http://www.w3.org/2000/svg">
<path d="M24.4918 9.4039H29.3653V12.2531C29.8952 11.1267 30.5961 10.2758 31.4667 9.68843C32.3372 9.1011 33.3031 8.81787 34.3433 8.81787C35.082 8.81787 35.8482 9.01626 36.6522 9.4052L34.8823 14.2983C34.2193 13.9668 33.6711 13.7971 33.2352 13.7971C32.3646 13.7971 31.6259 14.3362 31.0203 15.4247C30.4147 16.5041 30.1119 18.6328 30.1119 21.794L30.1315 22.9008V32.0527H24.4905L24.4918 9.4039Z" fill="black"/>
<path d="M51.8038 8.81787C53.943 8.81787 55.9491 9.34777 57.8325 10.4167C59.7158 11.4857 61.1829 12.9344 62.2335 14.7695C63.2842 16.6059 63.8141 18.5832 63.8141 20.7029C63.8141 22.842 63.2842 24.839 62.2244 26.7028C61.1646 28.5666 59.7172 30.0153 57.8808 31.066C56.0444 32.1167 54.0292 32.6374 51.8234 32.6374C48.5774 32.6374 45.8039 31.4823 43.5042 29.1735C41.2045 26.8646 40.0598 24.0533 40.0598 20.7511C40.0598 17.2115 41.3559 14.2592 43.9493 11.902C46.2294 9.84897 48.8502 8.81787 51.8038 8.81787ZM51.8978 14.1639C50.128 14.1639 48.661 14.7786 47.4876 16.0094C46.3142 17.2402 45.7269 18.8103 45.7269 20.7224C45.7269 22.6906 46.3038 24.2908 47.468 25.5111C48.6322 26.7315 50.0993 27.3475 51.8782 27.3475C53.6572 27.3475 55.1438 26.7328 56.3172 25.4929C57.4996 24.2529 58.087 22.6724 58.087 20.7237C58.087 18.7842 57.5101 17.2037 56.3459 15.9925C55.1921 14.7799 53.7055 14.1639 51.8978 14.1639Z" fill="black"/>
<path d="M69.5476 0.659302H75.2356V32.0502H69.5476V0.659302Z" fill="black"/>
<path d="M81.4719 0.659302H87.1599V32.0502H81.4719V0.659302Z" fill="black"/>
<path d="M91.5139 9.40405H97.3246L103.211 23.6188L109.703 9.40405H115.533L101.346 40.3408H95.4791L100.135 30.3666L91.5139 9.40405Z" fill="black"/>
<path d="M17.8953 18.4711C17.0339 17.1555 15.6713 16.067 13.8167 15.1964C14.9234 14.3637 15.7287 13.4736 16.2208 12.5182C16.7128 11.5719 16.9595 10.5121 16.9595 9.33877C16.9595 7.55067 16.4205 5.99751 15.332 4.67275C14.2434 3.35712 12.7856 2.44872 10.9505 1.9658C9.65443 1.60557 7.61965 1.42676 4.81742 1.42676H0V6.98161H5.83025H6.94748H7.33512C8.66902 6.98161 9.6727 7.26614 10.3253 7.82345C10.9779 8.38207 11.3094 9.14821 11.3094 10.1036C11.3094 11.1347 10.9687 11.94 10.2783 12.5352C9.58786 13.1316 8.53719 13.4344 7.10802 13.4344H6.94748H5.83025H0V32.0502H8.58418C11.0536 32.0502 12.9944 31.7004 14.3948 30.9996C15.7953 30.2987 16.9413 29.2389 17.8301 27.8293C18.7202 26.4092 19.164 24.8482 19.164 23.1254C19.1823 21.3282 18.7568 19.7763 17.8953 18.4711ZM12.1982 25.5778C11.3564 26.1926 9.72882 26.4954 7.3051 26.4954H5.84721V18.6499H7.05842C9.35815 18.6499 10.9948 19.0284 11.9894 19.7946C12.9735 20.5607 13.4747 21.6023 13.4747 22.9179C13.4564 24.0821 13.0401 24.9722 12.1982 25.5778Z" fill="black"/>
</svg>
