<svg width="164" height="31" viewBox="0 0 164 31" fill="none" xmlns="http://www.w3.org/2000/svg">
<path d="M15.7497 30.5231C24.0467 30.5231 30.7728 23.797 30.7728 15.5C30.7728 7.20295 24.0467 0.476868 15.7497 0.476868C7.45264 0.476868 0.726562 7.20295 0.726562 15.5C0.726562 23.797 7.45264 30.5231 15.7497 30.5231Z" fill="black"/>
<path d="M15.6695 15.8692C16.8237 15.8692 18.0151 15.9809 19.0576 16.2415C25.573 17.7681 23.3019 24.3952 15.8557 24.3952C10.6433 24.3952 6.54785 20.7838 6.54785 15.6459C6.54785 8.46025 12.6166 5.03491 17.3821 5.03491C20.4352 5.03491 22.9669 6.44975 22.9669 9.24207C22.9669 12.8907 19.4671 14.9012 15.6695 15.8692ZM9.34021 15.9065C11.6485 15.8692 13.6218 15.7948 15.1483 15.2736C22.3712 12.8163 21.5148 5.81683 16.7865 5.81683C13.5846 5.81683 9.37744 8.83257 9.34021 15.9065ZM9.37744 16.6511C9.67528 20.7838 12.691 23.5389 16.8609 23.5389C19.5788 23.5389 22.1105 21.9752 22.1105 19.6669C22.1105 17.9914 19.9511 16.5394 14.0686 16.5394C12.8399 16.5394 11.6858 16.5767 10.8667 16.6139C10.3454 16.6511 9.82421 16.6511 9.37744 16.6511Z" fill="url(#paint0_linear_9_224)"/>
<path d="M16.9761 15.8692C18.1304 15.8692 19.3218 15.9809 20.3642 16.2415C26.8797 17.7681 24.6086 24.3952 17.1623 24.3952C11.95 24.3952 7.85449 20.7838 7.85449 15.6459C7.85449 8.46025 13.9232 5.03491 18.6888 5.03491C21.7418 5.03491 24.2735 6.44975 24.2735 9.24207C24.2735 12.8907 20.7738 14.9012 16.9761 15.8692ZM10.6469 15.9065C12.9552 15.8692 14.9285 15.7948 16.4549 15.2736C23.6778 12.8163 22.8215 5.81683 18.0931 5.81683C14.8912 5.81683 10.684 8.83257 10.6469 15.9065ZM10.684 16.6511C10.9819 20.7838 13.9977 23.5389 18.1675 23.5389C20.8855 23.5389 23.4172 21.9752 23.4172 19.6669C23.4172 17.9914 21.2577 16.5394 15.3752 16.5394C14.1465 16.5394 12.9924 16.5767 12.1733 16.6139C11.6521 16.6511 11.1309 16.6511 10.684 16.6511Z" fill="url(#paint1_linear_9_224)"/>
<path d="M42.8168 8.72628H45.7402V22.2604H42.8168V20.5281C41.9326 21.9176 40.5341 22.6123 38.6212 22.6123C37.0693 22.6123 35.8152 22.1161 34.8587 21.1235C33.9023 20.1311 33.4241 18.7687 33.4241 17.0363V8.72628H36.3475V16.7384C36.3475 17.749 36.6182 18.5249 37.1596 19.0664C37.7009 19.6077 38.4409 19.8785 39.3792 19.8785C40.4077 19.8785 41.2379 19.5626 41.8695 18.931C42.5011 18.2813 42.8168 17.2979 42.8168 15.9806V8.72628ZM59.8778 3.31268H62.801V22.2604H59.8778V20.3116C58.777 21.8453 57.1979 22.6123 55.1407 22.6123C53.2821 22.6123 51.6941 21.9266 50.3767 20.5552C49.0594 19.1657 48.4007 17.4784 48.4007 15.4934C48.4007 13.4903 49.0594 11.8031 50.3767 10.4315C51.6941 9.06013 53.2821 8.37444 55.1407 8.37444C57.1979 8.37444 58.777 9.13223 59.8778 10.6481V3.31268ZM52.5421 18.6062C53.3542 19.4183 54.3738 19.8242 55.6009 19.8242C56.828 19.8242 57.8475 19.4183 58.6596 18.6062C59.4716 17.7761 59.8778 16.7384 59.8778 15.4934C59.8778 14.2483 59.4716 13.2196 58.6596 12.4075C57.8475 11.5774 56.828 11.1625 55.6009 11.1625C54.3738 11.1625 53.3542 11.5774 52.5421 12.4075C51.7301 13.2196 51.3241 14.2483 51.3241 15.4934C51.3241 16.7384 51.7301 17.7761 52.5421 18.6062ZM76.9276 3.31268H79.851V22.2604H76.9276V20.3116C75.8268 21.8453 74.2477 22.6123 72.1907 22.6123C70.3319 22.6123 68.7439 21.9266 67.4266 20.5552C66.1092 19.1657 65.4507 17.4784 65.4507 15.4934C65.4507 13.4903 66.1092 11.8031 67.4266 10.4315C68.7439 9.06013 70.3319 8.37444 72.1907 8.37444C74.2477 8.37444 75.8268 9.13223 76.9276 10.6481V3.31268ZM69.5921 18.6062C70.4042 19.4183 71.4237 19.8242 72.6507 19.8242C73.8779 19.8242 74.8975 19.4183 75.7095 18.6062C76.5216 17.7761 76.9276 16.7384 76.9276 15.4934C76.9276 14.2483 76.5216 13.2196 75.7095 12.4075C74.8975 11.5774 73.8779 11.1625 72.6507 11.1625C71.4237 11.1625 70.4042 11.5774 69.5921 12.4075C68.78 13.2196 68.3739 14.2483 68.3739 15.4934C68.3739 16.7384 68.78 17.7761 69.5921 18.6062ZM92.3804 8.72628H95.4933L90.2962 22.6935C88.9969 26.1944 86.7953 27.8545 83.6915 27.674V24.9403C84.6118 24.9944 85.3516 24.7959 85.9111 24.3446C86.4704 23.9115 86.9306 23.2259 87.2916 22.2876L87.4268 22.0168L81.6884 8.72628H84.8826L88.9156 18.5521L92.3804 8.72628ZM102.329 22.2604L95.7513 3.31268H99.1618L104.197 18.498L109.258 3.31268H112.642L106.064 22.2604H102.329ZM119.252 22.6123C117.267 22.6123 115.58 21.9266 114.191 20.5552C112.801 19.1836 112.106 17.4964 112.106 15.4934C112.106 13.4903 112.801 11.8031 114.191 10.4315C115.58 9.06013 117.267 8.37444 119.252 8.37444C121.256 8.37444 122.943 9.06013 124.314 10.4315C125.704 11.8031 126.399 13.4903 126.399 15.4934C126.399 17.4964 125.704 19.1836 124.314 20.5552C122.943 21.9266 121.256 22.6123 119.252 22.6123ZM116.248 18.5521C117.06 19.3641 118.062 19.7701 119.252 19.7701C120.443 19.7701 121.445 19.3641 122.257 18.5521C123.069 17.74 123.475 16.7205 123.475 15.4934C123.475 14.2663 123.069 13.2467 122.257 12.4346C121.445 11.6226 120.443 11.2166 119.252 11.2166C118.062 11.2166 117.06 11.6226 116.248 12.4346C115.436 13.2467 115.03 14.2663 115.03 15.4934C115.03 16.7205 115.436 17.74 116.248 18.5521ZM136.33 11.5413H132.973V18.0377C132.973 18.5972 133.099 19.0031 133.352 19.2559C133.605 19.4904 133.975 19.6257 134.462 19.6619C134.967 19.6798 135.59 19.6709 136.33 19.6347V22.2604C134.092 22.5312 132.486 22.3417 131.511 21.692C130.537 21.0243 130.05 19.8062 130.05 18.0377V11.5413H127.559V8.72628H130.05V5.80285L132.973 4.93666V8.72628H136.33V11.5413ZM140.727 16.7384C140.943 17.7671 141.439 18.5611 142.216 19.1205C142.991 19.6619 143.939 19.9326 145.058 19.9326C146.61 19.9326 147.774 19.3731 148.549 18.2544L150.958 19.6619C149.623 21.6289 147.646 22.6123 145.031 22.6123C142.829 22.6123 141.051 21.9446 139.698 20.6093C138.345 19.2559 137.668 17.5505 137.668 15.4934C137.668 13.4723 138.336 11.7851 139.671 10.4315C141.006 9.06013 142.721 8.37444 144.814 8.37444C146.798 8.37444 148.423 9.06912 149.686 10.4587C150.968 11.8482 151.608 13.5354 151.608 15.5204C151.608 15.8271 151.572 16.2332 151.501 16.7384H140.727ZM140.7 14.3565H148.658C148.459 13.2557 147.999 12.4256 147.277 11.8662C146.574 11.3069 145.743 11.0271 144.787 11.0271C143.704 11.0271 142.802 11.3248 142.08 11.9203C141.358 12.5159 140.898 13.328 140.7 14.3565ZM156.278 12.4618C156.278 12.9129 156.52 13.2737 157.009 13.5444C157.513 13.797 158.118 14.0226 158.822 14.2211C159.543 14.4016 160.266 14.6181 160.987 14.8709C161.71 15.1234 162.314 15.5565 162.801 16.1701C163.306 16.7656 163.559 17.5235 163.559 18.4438C163.559 19.7431 163.053 20.7627 162.042 21.5025C161.05 22.2424 159.796 22.6123 158.281 22.6123C156.945 22.6123 155.799 22.3325 154.843 21.7732C153.886 21.2137 153.192 20.4378 152.758 19.4454L155.275 17.9836C155.745 19.2829 156.746 19.9326 158.281 19.9326C159.815 19.9326 160.582 19.4272 160.582 18.4167C160.582 17.9836 160.329 17.6318 159.823 17.361C159.336 17.0904 158.731 16.8648 158.01 16.6843C157.306 16.4858 156.593 16.2602 155.871 16.0076C155.15 15.755 154.536 15.3399 154.03 14.7625C153.543 14.167 153.301 13.418 153.301 12.5159C153.301 11.2707 153.769 10.2692 154.707 9.51121C155.664 8.75342 156.846 8.37444 158.254 8.37444C159.372 8.37444 160.364 8.62704 161.231 9.13223C162.115 9.61961 162.792 10.3053 163.26 11.1895L160.797 12.57C160.329 11.5413 159.481 11.0271 158.254 11.0271C157.694 11.0271 157.224 11.1533 156.846 11.4061C156.466 11.6407 156.278 11.9925 156.278 12.4618Z" fill="black"/>
<defs>
<linearGradient id="paint0_linear_9_224" x1="5.95216" y1="15.5224" x2="31.2182" y2="36.2298" gradientUnits="userSpaceOnUse">
<stop stop-color="white"/>
<stop offset="1" stop-color="#8E48F2" stop-opacity="0"/>
</linearGradient>
<linearGradient id="paint1_linear_9_224" x1="7.2588" y1="15.5224" x2="32.5248" y2="36.2298" gradientUnits="userSpaceOnUse">
<stop stop-color="white"/>
<stop offset="1" stop-color="#8E48F2" stop-opacity="0"/>
</linearGradient>
</defs>
</svg>
