<svg width="113" height="65" viewBox="0 0 113 65" fill="none" xmlns="http://www.w3.org/2000/svg">
<path d="M14.3865 64.4546C12.8896 64.4546 11.4986 63.9777 10.2137 63.0239C8.35904 61.2885 7.24626 58.9967 6.87534 56.1486C6.51766 53.3004 6.33882 50.7503 6.33882 48.4983C6.33882 47.0676 6.39181 45.6236 6.49779 44.1664C7.05418 36.8406 7.95499 30.164 9.20024 24.1365C8.59086 24.1365 8.23319 24.1034 8.12721 24.0372C5.95465 29.3493 4.83526 32.1047 4.76902 32.3035C4.67629 32.6876 4.54382 33.0321 4.3716 33.3367C4.21264 33.6414 3.96094 33.7938 3.61651 33.7938C3.51053 33.6878 3.45754 33.5752 3.45754 33.456C3.45754 33.297 3.53702 33.1049 3.69599 32.8797L3.81522 32.6214C4.10666 31.8663 4.41797 31.098 4.74915 30.3164C5.61022 28.263 6.41168 26.17 7.15353 24.0372C5.08696 23.6795 3.42442 23.0171 2.16593 22.0501C0.920686 21.083 0.205333 19.6126 0.0198709 17.6387C0.00662364 17.5062 0 17.3407 0 17.1419C0.092731 14.6779 0.841202 12.4392 2.24541 10.4256C3.5569 8.5577 5.1002 6.96803 6.87534 5.65655C11.0085 2.46395 15.7643 0.801418 21.1427 0.668945C24.9579 0.668945 28.528 1.76185 31.8531 3.94765C34.9794 5.90825 37.3507 8.55108 38.9669 11.8761C40.4638 11.1343 41.5501 10.4984 42.2257 9.96854C42.9146 9.43865 43.5173 9.1737 44.034 9.1737H44.1134C44.1532 9.26643 44.1731 9.35254 44.1731 9.43202C44.1731 9.67047 43.9545 9.9023 43.5173 10.1275C43.4378 10.1672 43.365 10.207 43.2987 10.2467C43.0735 10.4057 41.7819 11.1939 39.4239 12.6114C41.252 16.3074 42.1661 20.5332 42.1661 25.289C42.1661 26.8654 42.0667 28.5015 41.868 30.1971C40.9275 36.0259 39.1855 41.1328 36.642 45.5176C32.6943 52.6314 27.8193 58.0429 22.017 61.7522C20.3611 62.8649 18.8244 63.5935 17.4069 63.938C15.9895 64.2824 14.9827 64.4546 14.3865 64.4546ZM10.2137 23.2423C13.1016 23.0304 15.7974 22.5402 18.3011 21.7719C20.8181 21.0035 23.2026 20.1093 25.4547 19.0893C29.9587 17.0492 34.2575 14.7972 38.3509 12.3332C36.8142 9.23331 34.5622 6.66334 31.5948 4.62326C28.6406 2.58318 25.1036 1.56314 20.9837 1.56314C15.7908 1.68236 11.2668 3.22567 7.41185 6.19306C5.91491 7.29259 4.49745 8.73654 3.15948 10.5249C1.83475 12.3001 1.05978 14.2872 0.834579 16.4862L0.814708 16.9432C0.814708 18.9038 1.41084 20.3743 2.60309 21.3546C3.87483 22.4011 5.50425 23.0304 7.49134 23.2423C9.71688 17.387 11.3264 12.7637 12.32 9.37241C12.7439 7.9417 13.1877 6.55736 13.6513 5.21939C13.7176 4.9147 13.797 4.68287 13.8898 4.5239C13.9825 4.36494 14.1349 4.28545 14.3468 4.28545C14.5058 4.45767 14.5853 4.65638 14.5853 4.88158C14.5853 5.18627 14.4925 5.55719 14.3071 5.99435C14.2408 6.20631 14.1547 6.53749 14.0487 6.9879C12.6048 12.3133 11.3264 17.7314 10.2137 23.2423ZM14.7045 63.6399C17.0228 63.5207 19.4338 62.6199 21.9375 60.9375C24.0041 59.5465 25.8057 58.0429 27.3424 56.4268C30.7204 53.0619 33.5752 49.2732 35.9068 45.0606C38.4767 40.7022 40.1923 35.7742 41.0533 30.2766C41.252 28.5942 41.3514 26.9648 41.3514 25.3884C41.3514 20.8843 40.5301 16.8306 38.8874 13.2274C38.8477 13.2274 38.8145 13.2141 38.788 13.1876C38.7615 13.1611 38.7351 13.1479 38.7086 13.1479C37.4766 13.797 36.2313 14.466 34.9728 15.1548C31.4226 17.1817 27.6405 19.0496 23.6265 20.7584C19.6258 22.4541 15.0887 23.5801 10.0149 24.1365L9.27972 28.6472C7.84901 36.3174 7.13366 42.5966 7.13366 47.4848C7.13366 49.7236 7.25289 51.9823 7.49134 54.2608C7.71654 56.7646 8.33916 58.9504 9.35921 60.8182C10.3792 62.6861 12.161 63.6267 14.7045 63.6399ZM9.39895 23.3218C9.55791 22.2753 9.77649 21.189 10.0547 20.063C10.3461 18.8442 10.5448 17.7977 10.6508 16.9234C10.3461 17.8374 10.0216 18.7449 9.67714 19.6457C9.22673 20.8379 8.80282 22.0633 8.4054 23.3218H9.39895Z" fill="black"/>
<path d="M47.9485 39.7749C47.6703 39.7882 47.3855 39.7087 47.0941 39.5365C47.0543 39.404 47.0345 39.2781 47.0345 39.1589C47.0212 38.6688 47.3127 38.2117 47.9088 37.7878C48.0413 37.6686 48.1671 37.556 48.2863 37.45C47.9817 37.0923 47.6703 36.7943 47.3524 36.5558C46.5841 35.9862 46.1867 35.3305 46.1602 34.5886C46.1337 33.5553 46.4648 32.7406 47.1537 32.1445C47.6703 31.7073 48.1737 31.4821 48.6639 31.4689C48.7964 31.4689 48.9421 31.4821 49.1011 31.5086C49.26 31.5351 49.4322 31.6411 49.6177 31.8266C49.8032 31.9988 49.9091 32.2173 49.9356 32.4823C49.9091 33.0652 49.6243 33.5421 49.0812 33.913C48.538 34.2707 47.8624 34.6151 47.0543 34.9463C47.3855 35.5954 47.8624 36.1187 48.4851 36.5161L49.0017 36.9533C50.4059 36.0789 51.9293 35.2708 53.572 34.529C53.6647 34.5025 53.7575 34.4628 53.8502 34.4098C54.1814 34.2111 54.4596 34.1051 54.6848 34.0918C54.8438 34.0918 55.0093 34.1382 55.1816 34.2309C55.1816 34.5224 55.0756 34.7277 54.8636 34.8469C54.6649 34.9662 54.4397 35.0589 54.188 35.1251L53.8303 35.2642C52.2804 35.9398 50.8166 36.7413 49.4389 37.6686C49.4654 37.8143 49.4786 37.9534 49.4786 38.0859C49.5051 38.6555 49.2865 39.1059 48.8229 39.4371C48.5447 39.6623 48.2532 39.7749 47.9485 39.7749ZM47.0742 34.1515L47.6505 33.8335C47.9817 33.6746 48.2797 33.4957 48.5447 33.297C48.8229 33.0983 49.0282 32.8267 49.1607 32.4823C48.9222 32.3631 48.697 32.3101 48.4851 32.3233C48.1936 32.3366 47.9154 32.4624 47.6505 32.7009C47.2398 33.085 47.0411 33.5355 47.0543 34.0521L47.0742 34.1515ZM47.8889 39.0397C48.1141 38.9867 48.2996 38.894 48.4453 38.7615C48.591 38.6158 48.6573 38.4767 48.644 38.3442C48.644 38.2912 48.6308 38.2382 48.6043 38.1852C48.5248 38.331 48.4254 38.4436 48.3062 38.5231C48.2002 38.5893 48.1075 38.6622 48.028 38.7416C47.9618 38.8211 47.9154 38.9205 47.8889 39.0397Z" fill="black"/>
<path d="M58.1622 39.3775C57.2481 39.404 56.4334 39.2053 55.7181 38.7814C54.857 38.2515 54.3867 37.5295 54.3072 36.6154C54.2278 35.5557 54.4993 34.6681 55.1219 33.9527C55.9565 33.0122 57.0428 32.4955 58.3808 32.4028C59.0299 32.3498 59.6326 32.4094 60.189 32.5816C60.9044 32.7936 61.3018 33.1182 61.3813 33.5553C61.421 34.125 61.07 34.5555 60.3281 34.8469C59.5995 35.1384 58.904 35.3172 58.2417 35.3834C57.5926 35.4364 57.1223 35.4762 56.8308 35.5027C56.2347 35.5424 55.7048 35.5623 55.2412 35.5623C55.1352 35.92 55.0954 36.2511 55.1219 36.5558C55.1617 37.0327 55.367 37.4434 55.7379 37.7878C56.4136 38.4105 57.162 38.6886 57.9834 38.6224C59.891 38.4899 61.8251 37.4103 63.7857 35.3834C63.9181 35.2642 64.0374 35.1251 64.1433 34.9662C64.5408 34.4628 64.8984 34.2044 65.2164 34.1912H65.4151L65.435 34.3303C65.4614 34.741 65.17 35.198 64.5606 35.7014L64.2824 35.92C63.1034 37.0857 61.9046 37.9998 60.6858 38.6622C59.9837 39.0463 59.1425 39.2848 58.1622 39.3775ZM56.9501 34.7476C58.606 34.6284 59.8181 34.3038 60.5864 33.7739C60.1493 33.3235 59.7254 33.1049 59.3147 33.1182C58.9173 33.1314 58.6788 33.1447 58.5994 33.1579C57.9635 33.1976 57.3674 33.3566 56.811 33.6348C56.1619 33.9527 55.7446 34.3369 55.5591 34.7873C56.0228 34.8006 56.4864 34.7873 56.9501 34.7476Z" fill="black"/>
<path d="M65.8522 30.217C65.9185 30.376 65.9582 30.5681 65.9715 30.7933C65.9847 31.0052 65.9582 31.2039 65.892 31.3894C65.8257 31.5616 65.7065 31.6676 65.5343 31.7073C65.4946 31.7206 65.4548 31.7206 65.4151 31.7073C65.3886 31.6941 65.3621 31.6808 65.3356 31.6676C65.3091 31.6543 65.276 31.6477 65.2362 31.6477C65.2097 31.6345 65.17 31.6278 65.117 31.6278C65.0243 31.4424 64.9779 31.2106 64.9779 30.9324C64.9779 30.6409 65.0442 30.4157 65.1766 30.2568C65.3091 30.0845 65.5343 30.0713 65.8522 30.217ZM65.4747 32.6413C65.7396 32.7737 65.8787 32.9724 65.892 33.2374C65.9185 33.4891 65.8986 33.7673 65.8324 34.072C65.7926 34.2574 65.7661 34.4363 65.7529 34.6085C65.6999 35.3901 65.7264 36.1385 65.8324 36.8539C65.9384 37.556 66.2298 38.0925 66.7067 38.4634C67.5545 38.4634 68.2632 38.3111 68.8329 38.0064C69.4025 37.7017 69.9125 37.3573 70.3629 36.9731C70.4689 36.8936 70.5749 36.8142 70.6809 36.7347C71.2108 36.3373 71.7142 35.92 72.1911 35.4828C72.297 35.3768 72.3964 35.2642 72.4891 35.145C72.6216 34.9463 72.7806 34.7741 72.966 34.6284C73.1647 34.4694 73.4164 34.4098 73.7211 34.4495C73.8669 34.6217 73.8801 34.7939 73.7609 34.9662C73.6416 35.1251 73.4761 35.2841 73.2641 35.4431C73.1581 35.5358 73.0521 35.6285 72.9462 35.7213C72.4163 36.2644 71.7672 36.8473 70.9988 37.4699C70.2305 38.0793 69.4952 38.5429 68.7931 38.8609C68.5017 38.9801 68.144 39.0728 67.7201 39.1391C67.3094 39.2053 66.9054 39.192 66.508 39.0993C65.5939 38.7946 65.0839 38.0991 64.9779 37.0129C64.8719 35.9266 64.8852 34.8138 65.0177 33.6745C65.0442 33.3964 65.0707 33.1314 65.0971 32.8797C65.0971 32.7472 65.1568 32.6678 65.276 32.6413C65.3422 32.6413 65.4085 32.6413 65.4747 32.6413Z" fill="black"/>
<path d="M79.6228 38.6025C81.2655 37.8474 82.6167 36.7612 83.6765 35.3437C83.7294 35.2642 83.7891 35.1781 83.8553 35.0854C83.9878 34.8867 84.1401 34.7145 84.3123 34.5687C84.4978 34.4098 84.723 34.37 84.9879 34.4495C85.0409 34.7145 84.9879 34.9595 84.829 35.1847C84.6833 35.4099 84.511 35.6219 84.3123 35.8206C84.2461 35.9001 84.1799 35.973 84.1136 36.0392C83.703 36.4896 83.2592 36.9334 82.7823 37.3705C82.7028 37.45 82.6167 37.5295 82.5239 37.609C82.1265 38.0197 81.6695 38.4237 81.1529 38.8211C80.6362 39.2053 80.1262 39.3974 79.6228 39.3974C78.9074 39.3046 78.5034 38.841 78.4107 38.0064C78.3179 37.1586 78.3246 36.2048 78.4305 35.145C78.5233 34.2177 78.5365 33.403 78.4703 32.7009C77.8079 33.3765 77.1919 34.4032 76.6223 35.7809C76.5958 35.8339 76.5693 35.8935 76.5428 35.9597C76.4766 36.0922 76.4037 36.2511 76.3242 36.4366C76.0858 37.0195 75.7877 37.6024 75.43 38.1852C75.0856 38.7681 74.6948 39.0529 74.2576 39.0397C73.953 38.9602 73.7344 38.7085 73.6019 38.2846C73.4694 37.8607 73.3899 37.4103 73.3634 36.9334C73.3634 36.8406 73.3568 36.7545 73.3436 36.6751C73.2906 36.1717 73.284 35.6881 73.3237 35.2245C73.3634 34.7476 73.5555 34.4628 73.9 34.37C74.0589 34.5422 74.1517 34.7741 74.1782 35.0655C74.2047 35.3437 74.2047 35.655 74.1782 35.9994C74.1517 36.2909 74.145 36.5691 74.1583 36.834C74.1848 37.1122 74.2179 37.3639 74.2576 37.5891C74.2974 37.7613 74.3239 37.9203 74.3371 38.066C75.0657 37.3507 75.6817 36.3108 76.1851 34.9463C76.6885 33.5951 77.3045 32.5552 78.0331 31.8266C78.4703 31.4954 78.775 31.4887 78.9472 31.8067C79.1326 32.1114 79.2386 32.5419 79.2651 33.0983C79.2916 33.6547 79.2916 34.1382 79.2651 34.5489C79.2519 34.8536 79.232 35.1649 79.2055 35.4828C79.1393 36.1187 79.1128 36.7214 79.126 37.2911C79.1525 37.8474 79.3181 38.2846 79.6228 38.6025Z" fill="black"/>
<path d="M85.445 30.217C85.5112 30.376 85.5509 30.5681 85.5642 30.7933C85.5774 31.0052 85.5509 31.2039 85.4847 31.3894C85.4185 31.5616 85.2993 31.6676 85.127 31.7073C85.0873 31.7206 85.0476 31.7206 85.0078 31.7073C84.9813 31.6941 84.9548 31.6808 84.9283 31.6676C84.9018 31.6543 84.8687 31.6477 84.829 31.6477C84.8025 31.6345 84.7627 31.6278 84.7097 31.6278C84.617 31.4424 84.5706 31.2106 84.5706 30.9324C84.5706 30.6409 84.6369 30.4157 84.7694 30.2568C84.9018 30.0845 85.127 30.0713 85.445 30.217ZM85.0674 32.6413C85.3324 32.7737 85.4715 32.9724 85.4847 33.2374C85.5112 33.4891 85.4913 33.7673 85.4251 34.072C85.3854 34.2574 85.3589 34.4363 85.3456 34.6085C85.2926 35.3901 85.3191 36.1385 85.4251 36.8539C85.5311 37.556 85.8225 38.0925 86.2994 38.4634C87.1472 38.4634 87.856 38.3111 88.4256 38.0064C88.9952 37.7017 89.5053 37.3573 89.9557 36.9731C90.0617 36.8936 90.1676 36.8142 90.2736 36.7347C90.8035 36.3373 91.3069 35.92 91.7838 35.4828C91.8898 35.3768 91.9891 35.2642 92.0819 35.145C92.2143 34.9463 92.3733 34.7741 92.5588 34.6284C92.7575 34.4694 93.0092 34.4098 93.3139 34.4495C93.4596 34.6217 93.4728 34.7939 93.3536 34.9662C93.2344 35.1251 93.0688 35.2841 92.8568 35.4431C92.7508 35.5358 92.6449 35.6285 92.5389 35.7213C92.009 36.2644 91.3599 36.8473 90.5915 37.4699C89.8232 38.0793 89.088 38.5429 88.3859 38.8609C88.0944 38.9801 87.7367 39.0728 87.3128 39.1391C86.9022 39.2053 86.4981 39.192 86.1007 39.0993C85.1866 38.7946 84.6766 38.0991 84.5706 37.0129C84.4647 35.9266 84.4779 34.8138 84.6104 33.6745C84.6369 33.3964 84.6634 33.1314 84.6899 32.8797C84.6899 32.7472 84.7495 32.6678 84.8687 32.6413C84.9349 32.6413 85.0012 32.6413 85.0674 32.6413Z" fill="black"/>
<path d="M94.9632 39.3576C94.3803 39.3576 93.8106 39.2318 93.2542 38.9801C92.4992 38.5032 92.1216 37.8408 92.1216 36.993C92.1216 35.8802 92.5323 34.8933 93.3536 34.0322C94.0557 33.2771 94.8704 32.8996 95.7977 32.8996C96.3806 32.8996 96.9039 33.0718 97.3675 33.4162C97.7252 33.6944 97.904 34.0389 97.904 34.4495V34.5687H97.7649C97.4735 34.5687 97.1887 34.4164 96.9105 34.1117C96.6323 33.7938 96.268 33.6348 95.8176 33.6348C95.0228 33.6348 94.3471 33.9527 93.7908 34.5886C93.1681 35.3172 92.8502 36.0856 92.837 36.8936C92.9297 37.8872 93.5391 38.4436 94.6651 38.5628C96.6389 38.5628 98.6923 37.5361 100.825 35.4828C100.971 35.3503 101.117 35.2046 101.262 35.0456C101.739 34.5025 102.176 34.2044 102.574 34.1515C102.653 34.2574 102.693 34.3568 102.693 34.4495C102.693 34.6217 102.574 34.8271 102.335 35.0655L102.236 35.145C100.606 36.9201 98.8976 38.1521 97.1092 38.841C96.2349 39.1854 95.5195 39.3576 94.9632 39.3576Z" fill="black"/>
<path d="M103.19 38.384C103.627 38.1058 104.004 37.6752 104.322 37.0924C104.508 36.7744 104.713 36.4697 104.938 36.1783C104.991 36.1253 105.044 36.0657 105.097 35.9994C105.362 35.6285 105.674 35.3106 106.031 35.0456C106.402 34.7674 106.859 34.6747 107.402 34.7675C107.575 35.3768 107.502 35.9001 107.184 36.3373C106.866 36.7612 106.502 37.1188 106.091 37.4103C105.839 37.609 105.568 37.7878 105.276 37.9468C104.945 38.1323 104.64 38.3376 104.362 38.5628C104.097 38.788 103.912 39.0794 103.806 39.4371C105.21 39.4106 106.495 38.9933 107.661 38.1852C108.826 37.3639 109.787 36.6088 110.542 35.92C111.006 35.5093 111.43 35.1781 111.814 34.9264C111.867 34.8867 111.92 34.8469 111.973 34.8072C112.105 34.688 112.244 34.6019 112.39 34.5489C112.549 34.4826 112.708 34.5224 112.867 34.6681C112.946 34.8668 112.92 35.0324 112.787 35.1649C112.668 35.2973 112.529 35.4099 112.37 35.5027C112.291 35.5424 112.218 35.5822 112.151 35.6219C110.986 36.7347 109.707 37.768 108.316 38.7218C106.925 39.6756 105.276 40.2055 103.369 40.3114C103.104 42.3118 103.084 44.4645 103.309 46.7695C103.402 48.0412 103.448 49.2666 103.448 50.4456C103.448 50.5118 103.448 50.5913 103.448 50.6841C103.475 50.8695 103.468 51.0484 103.428 51.2206C103.402 51.3928 103.289 51.512 103.09 51.5783C102.839 51.512 102.686 51.3332 102.633 51.0417C102.58 50.7503 102.56 50.4324 102.574 50.0879C102.574 49.9687 102.574 49.8495 102.574 49.7303C102.216 41.3977 102.276 33.0652 102.753 24.7326C102.766 24.3882 102.786 24.0239 102.812 23.6397C102.878 22.3945 102.978 21.1426 103.11 19.8841C103.256 18.6124 103.514 17.5327 103.885 16.6452C103.965 16.4465 104.084 16.2411 104.243 16.0292C104.415 15.8172 104.62 15.698 104.859 15.6715C105.217 15.6715 105.508 15.8702 105.733 16.2676C105.958 16.665 106.124 17.1486 106.23 17.7182C106.336 18.2746 106.409 18.7979 106.449 19.288C106.647 24.3882 105.972 28.7863 104.422 32.4823C104.249 32.8665 104.051 33.244 103.826 33.6149C103.521 34.1051 103.309 34.582 103.19 35.0456C103.097 35.602 103.09 36.1849 103.17 36.7943C103.236 37.3374 103.243 37.8673 103.19 38.384ZM103.369 32.9195C104.283 30.7337 104.971 28.1107 105.435 25.0506C105.899 21.9904 105.766 19.1555 105.038 16.5458C104.945 16.5458 104.852 16.5458 104.76 16.5458C104.11 18.8508 103.7 21.4407 103.528 24.3153C103.355 27.1768 103.302 30.0448 103.369 32.9195ZM105.654 36.7148C105.733 36.6221 105.833 36.5293 105.952 36.4366C106.111 36.3174 106.25 36.1915 106.369 36.0591C106.488 35.9133 106.541 35.7809 106.528 35.6616C106.475 35.7146 106.409 35.7676 106.329 35.8206C106.17 35.9663 106.011 36.1187 105.852 36.2776C105.707 36.4234 105.64 36.5691 105.654 36.7148Z" fill="black"/>
</svg>
