<svg width="195" height="35" viewBox="0 0 195 35" fill="none" xmlns="http://www.w3.org/2000/svg">
<g clip-path="url(#clip0_9_212)">
<path d="M49.5068 0.691519C49.5068 0.86982 49.4223 1.0231 49.2972 1.12632L49.2472 1.16386L1.24671 34.772C1.15913 34.8314 1.04964 34.869 0.933905 34.869C0.621096 34.869 0.37085 34.6187 0.37085 34.309C0.37085 34.1964 0.40213 34.0932 0.464692 34.0056C0.464692 34.0025 0.46782 33.9962 0.46782 33.9931C0.499101 33.9618 0.53351 33.9243 0.564791 33.8805C2.68563 31.3686 9.69254 22.0157 7.31207 10.5669C6.45497 6.43781 4.62817 3.24091 3.04223 1.08879C3.02034 1.0575 2.99531 1.0231 2.96716 0.991815C2.91085 0.907357 2.87957 0.80413 2.87957 0.694647C2.87957 0.381839 3.12982 0.131592 3.44263 0.131592H48.9375C49.2503 0.131592 49.5005 0.381839 49.5005 0.694647L49.5068 0.691519Z" fill="#FF4D07"/>
<path d="M7.13647 34.3087C7.13647 34.1304 7.22093 33.9771 7.34606 33.8739L7.39611 33.8364L55.3966 0.23137C55.4841 0.171936 55.5936 0.134399 55.7094 0.134399C56.0222 0.134399 56.2724 0.384646 56.2724 0.694326C56.2724 0.806937 56.2411 0.910164 56.1786 0.997751C56.1786 1.00088 56.1754 1.00713 56.1754 1.01026C56.1442 1.04154 56.1098 1.07908 56.0785 1.12287C53.9576 3.63473 46.9507 12.9877 49.3312 24.4365C50.1883 28.5656 52.0151 31.7625 53.601 33.9146C53.6229 33.9459 53.648 33.9803 53.6761 34.0115C53.7324 34.096 53.7637 34.1992 53.7637 34.3087C53.7637 34.6215 53.5135 34.8718 53.2006 34.8718H7.69953C7.38672 34.8718 7.13647 34.6215 7.13647 34.3087Z" fill="#FF4D07"/>
<path d="M80.9844 9.16835L83.0208 9.91597L77.4341 26.842C77.3089 27.2143 77.2182 27.5427 77.1619 27.8211C77.1056 28.0995 77.0774 28.3717 77.0774 28.6344V29.382C77.0774 29.7668 76.9899 30.064 76.8147 30.2704C76.6395 30.4769 76.4049 30.5801 76.1046 30.5801H72.9671C72.6543 30.5801 72.4103 30.4769 72.2289 30.2704C72.0475 30.064 71.9568 29.7699 71.9568 29.382V28.6344C71.9568 28.4217 71.9286 28.2027 71.8723 27.9713C71.816 27.7398 71.7316 27.4708 71.6189 27.158L65.416 8.08291C65.2783 7.68564 65.125 7.38847 64.9593 7.19453C64.7903 7.00059 64.5651 6.85044 64.2773 6.73783L63.5297 6.51261C63.267 6.41251 63.0668 6.27175 62.9229 6.09345C62.779 5.91202 62.707 5.69931 62.707 5.44906C62.707 5.12687 62.8103 4.87349 63.0167 4.69207C63.2232 4.51064 63.5297 4.41992 63.9426 4.41992H71.303C71.7253 4.41992 72.035 4.51064 72.2289 4.69207C72.4229 4.87349 72.5198 5.12374 72.5198 5.44906C72.5198 5.95894 72.232 6.29677 71.6596 6.4563L70.3896 6.64399C70.0518 6.74409 69.8516 6.92552 69.7828 7.18515C69.7139 7.44791 69.7828 7.90148 69.9986 8.54899L76.1265 27.6022L74.4843 28.8346L80.9844 9.1621V9.16835ZM92.7898 5.45219C92.7898 5.13 92.893 4.87662 93.0995 4.69519C93.306 4.51376 93.6125 4.42305 94.0254 4.42305H99.6497C100.072 4.42305 100.385 4.51689 100.585 4.70458C100.785 4.89226 100.885 5.13938 100.885 5.45219C100.885 5.71495 100.81 5.9214 100.66 6.07781C100.51 6.23421 100.282 6.37497 99.9688 6.49697L99.2212 6.72219C98.8958 6.8348 98.6362 7.02249 98.436 7.28212C98.2358 7.54488 98.0387 7.98594 97.8385 8.60843L92.086 26.842C91.9734 27.2143 91.8858 27.5427 91.8232 27.8211C91.7607 28.1026 91.7294 28.3717 91.7294 28.6344V29.3633C91.7294 29.7605 91.6418 30.064 91.4666 30.2704C91.2915 30.4769 91.0631 30.5801 90.7753 30.5801H87.6191C87.3063 30.5801 87.0592 30.4769 86.8715 30.2704C86.6838 30.064 86.59 29.7637 86.59 29.3633V28.6344C86.59 28.4217 86.5618 28.2027 86.5055 27.9713C86.4492 27.7398 86.371 27.4645 86.2709 27.1392L80.3307 8.08291C80.193 7.66062 80.0585 7.34155 79.9303 7.12884C79.7989 6.91613 79.6018 6.76286 79.3422 6.66276L78.5946 6.43754C78.3443 6.33744 78.1473 6.20919 77.9971 6.05591C77.847 5.89951 77.7719 5.69931 77.7719 5.44906C77.7719 5.12687 77.8751 4.87349 78.0816 4.69207C78.288 4.51064 78.5946 4.41992 79.0044 4.41992H86.0832C86.5055 4.41992 86.8183 4.51064 87.0185 4.69207C87.2187 4.87349 87.3188 5.12374 87.3188 5.44906C87.3188 5.71182 87.2406 5.92453 87.0842 6.09345C86.9278 6.26236 86.7026 6.39687 86.4023 6.49384L85.0947 6.7003C84.7819 6.77537 84.5974 6.94429 84.5348 7.20392C84.4722 7.46668 84.5411 7.91399 84.7413 8.54899L90.6439 27.6022L89.1487 28.8346L95.5926 8.41761C95.7678 7.85769 95.8147 7.45104 95.7333 7.20392C95.652 6.95367 95.3861 6.76911 94.9388 6.64399L93.6125 6.43754C93.3622 6.34995 93.1652 6.22483 93.015 6.06529C92.8649 5.90263 92.7898 5.69931 92.7898 5.44906V5.45219Z" fill="black"/>
<path d="M114.334 19.4222C114.334 20.1698 114.118 20.736 113.689 21.1239C113.261 21.5086 112.641 21.7026 111.831 21.7026H100.342V20.1135H109.16C109.945 20.1135 110.336 19.7663 110.336 19.0687C110.336 17.8112 109.976 16.7946 109.254 16.0251C108.531 15.2525 107.596 14.8677 106.451 14.8677C105.528 14.8677 104.705 15.1148 103.977 15.6059C103.248 16.097 102.682 16.7946 102.275 17.6986C101.871 18.6026 101.668 19.6756 101.668 20.9205C101.668 23.2385 102.244 25.0089 103.395 26.2352C104.546 27.4614 106.044 28.0745 107.887 28.0745C109.157 28.0745 110.223 27.7867 111.081 27.2142C111.941 26.6418 112.57 25.9755 112.967 25.2154C113.142 25.0152 113.286 24.8713 113.405 24.7775C113.524 24.6836 113.658 24.643 113.805 24.6555C113.98 24.6555 114.121 24.7212 114.224 24.8525C114.331 24.9839 114.384 25.1779 114.384 25.4406C114.346 26.4009 114.012 27.3018 113.373 28.1495C112.738 28.9973 111.863 29.6854 110.749 30.2141C109.635 30.7427 108.343 31.0086 106.873 31.0086C105.056 31.0086 103.486 30.6332 102.165 29.8794C100.845 29.1255 99.8257 28.0776 99.1125 26.7325C98.3962 25.3874 98.0396 23.8359 98.0396 22.0811C98.0396 20.3262 98.4024 18.7278 99.1312 17.3264C99.8601 15.925 100.892 14.8176 102.231 14.0012C103.57 13.1848 105.156 12.7781 106.986 12.7781C108.431 12.7781 109.704 13.0659 110.805 13.6384C111.906 14.2108 112.77 14.9991 113.392 16.0001C114.015 17.0011 114.327 18.1459 114.327 19.4284L114.334 19.4222Z" fill="black"/>
<path d="M133.123 9.16835L135.159 9.91597L129.572 26.842C129.447 27.2143 129.357 27.5427 129.3 27.8211C129.244 28.0995 129.216 28.3717 129.216 28.6344V29.382C129.216 29.7668 129.128 30.064 128.953 30.2704C128.778 30.4769 128.543 30.5801 128.243 30.5801H125.106C124.793 30.5801 124.549 30.4769 124.367 30.2704C124.186 30.064 124.095 29.7699 124.095 29.382V28.6344C124.095 28.4217 124.067 28.2027 124.011 27.9713C123.954 27.7398 123.87 27.4708 123.757 27.158L117.554 8.08291C117.417 7.68564 117.263 7.38847 117.098 7.19453C116.929 7.00059 116.704 6.85044 116.416 6.73783L115.668 6.51261C115.405 6.41251 115.205 6.27175 115.061 6.09345C114.917 5.91202 114.845 5.69931 114.845 5.44906C114.845 5.12687 114.949 4.87349 115.155 4.69207C115.362 4.51064 115.668 4.41992 116.081 4.41992H123.441C123.864 4.41992 124.173 4.51064 124.367 4.69207C124.561 4.87349 124.658 5.12374 124.658 5.44906C124.658 5.95894 124.37 6.29677 123.798 6.4563L122.528 6.64399C122.19 6.74409 121.99 6.92552 121.921 7.18515C121.852 7.44791 121.921 7.90148 122.137 8.54899L128.265 27.6022L126.623 28.8346L133.123 9.1621V9.16835ZM144.928 5.45219C144.928 5.13 145.031 4.87662 145.238 4.69519C145.444 4.51376 145.751 4.42305 146.164 4.42305H151.788C152.21 4.42305 152.523 4.51689 152.723 4.70458C152.924 4.89226 153.024 5.13938 153.024 5.45219C153.024 5.71495 152.949 5.9214 152.799 6.07781C152.648 6.23421 152.42 6.37497 152.107 6.49697L151.36 6.72219C151.034 6.8348 150.775 7.02249 150.574 7.28212C150.374 7.54488 150.177 7.98594 149.977 8.60843L144.224 26.842C144.112 27.2143 144.024 27.5427 143.962 27.8211C143.899 28.1026 143.868 28.3717 143.868 28.6344V29.3633C143.868 29.7605 143.78 30.064 143.605 30.2704C143.43 30.4769 143.202 30.5801 142.914 30.5801H139.758C139.445 30.5801 139.198 30.4769 139.01 30.2704C138.822 30.064 138.728 29.7637 138.728 29.3633V28.6344C138.728 28.4217 138.7 28.2027 138.644 27.9713C138.588 27.7398 138.509 27.4645 138.409 27.1392L132.469 8.08291C132.331 7.66062 132.197 7.34155 132.069 7.12884C131.937 6.91613 131.74 6.76286 131.481 6.66276L130.733 6.43754C130.483 6.33744 130.286 6.20919 130.136 6.05591C129.985 5.89951 129.91 5.69931 129.91 5.44906C129.91 5.12687 130.014 4.87349 130.22 4.69207C130.426 4.51064 130.733 4.41992 131.143 4.41992H138.222C138.644 4.41992 138.957 4.51064 139.157 4.69207C139.357 4.87349 139.457 5.12374 139.457 5.44906C139.457 5.71182 139.379 5.92453 139.223 6.09345C139.066 6.26236 138.841 6.39687 138.541 6.49384L137.233 6.7003C136.92 6.77537 136.736 6.94429 136.673 7.20392C136.611 7.46668 136.679 7.91399 136.88 8.54899L142.782 27.6022L141.287 28.8346L147.731 8.41761C147.906 7.85769 147.953 7.45104 147.872 7.20392C147.79 6.95367 147.525 6.76911 147.077 6.64399L145.751 6.43754C145.501 6.34995 145.304 6.22483 145.153 6.06529C145.003 5.90263 144.928 5.69931 144.928 5.44906V5.45219Z" fill="black"/>
<path d="M158.695 14.0232V27.1173C158.695 27.5521 158.77 27.8743 158.92 28.0808C159.07 28.2872 159.28 28.4342 159.555 28.5187L160.209 28.7064C160.459 28.819 160.65 28.9504 160.788 29.0974C160.925 29.2475 160.994 29.4415 160.994 29.6761C160.994 29.9639 160.903 30.1828 160.722 30.3392C160.541 30.4957 160.278 30.5739 159.927 30.5739H153.559C153.221 30.5739 152.961 30.4957 152.773 30.3392C152.586 30.1828 152.492 29.9639 152.492 29.6761C152.492 29.4384 152.558 29.2475 152.689 29.0974C152.82 28.9472 153.008 28.8159 153.258 28.7064L153.95 28.5187C154.222 28.4311 154.435 28.2841 154.585 28.0808C154.735 27.8743 154.81 27.5553 154.81 27.1173V17.4203C154.81 17.023 154.744 16.7383 154.613 16.5694C154.481 16.4005 154.291 16.291 154.043 16.241L152.905 16.1847C152.68 16.1096 152.504 16.0032 152.373 15.8656C152.242 15.728 152.176 15.5559 152.176 15.3432C152.176 15.118 152.254 14.924 152.411 14.7551C152.567 14.5862 152.805 14.4454 153.13 14.336L155.895 13.3631C156.268 13.2255 156.599 13.1129 156.887 13.0253C157.172 12.9377 157.434 12.8939 157.672 12.8939C157.997 12.8939 158.248 12.994 158.429 13.1942C158.611 13.3944 158.701 13.6666 158.701 14.0169L158.695 14.0232Z" fill="black"/>
<path d="M168.878 14.0981L169.066 18.246V27.1203C169.066 27.5426 169.153 27.8742 169.328 28.1088C169.504 28.3466 169.763 28.4811 170.114 28.5186L171.628 28.7063C171.95 28.7438 172.187 28.8502 172.338 29.0253C172.488 29.2005 172.563 29.4164 172.563 29.6791C172.563 29.9669 172.469 30.1859 172.281 30.3423C172.094 30.4987 171.834 30.5769 171.496 30.5769H163.986C163.648 30.5769 163.388 30.4987 163.2 30.3423C163.013 30.1859 162.919 29.9669 162.919 29.6791C162.919 29.4414 162.985 29.2506 163.116 29.1004C163.247 28.9503 163.435 28.8189 163.685 28.7094L164.377 28.5217C164.649 28.4341 164.862 28.2871 165.012 28.0838C165.162 27.8773 165.237 27.5583 165.237 27.1203V17.4233C165.237 17.026 165.171 16.7414 165.04 16.5724C164.908 16.4035 164.718 16.294 164.47 16.244L163.332 16.1877C163.107 16.1126 162.931 16.0063 162.8 15.8686C162.669 15.731 162.603 15.5589 162.603 15.3462C162.603 15.121 162.681 14.9271 162.838 14.7582C162.994 14.5892 163.232 14.4485 163.557 14.339L166.341 13.3662C166.679 13.241 166.979 13.1315 167.248 13.0377C167.517 12.9439 167.736 12.8969 167.911 12.8969C168.184 12.8969 168.406 12.9877 168.575 13.1691C168.743 13.3505 168.847 13.6571 168.884 14.095L168.878 14.0981ZM168.262 20.786C168.262 19.0687 168.524 17.6078 169.047 16.4067C169.569 15.2055 170.261 14.2952 171.121 13.679C171.981 13.0627 172.913 12.7531 173.924 12.7531C174.993 12.7531 175.841 13.0752 176.464 13.7165C177.086 14.3578 177.399 15.2399 177.399 16.3597C177.399 17.22 177.221 17.8643 176.867 18.2929C176.514 18.7214 176.035 18.9373 175.438 18.9373C174.84 18.9373 174.38 18.7777 174.064 18.4618C173.748 18.1427 173.589 17.7111 173.589 17.1637V16.5662C173.589 16.1314 173.479 15.8217 173.26 15.6403C173.041 15.4588 172.747 15.3681 172.372 15.3681C171.825 15.3681 171.299 15.5715 170.792 15.975C170.289 16.3785 169.873 16.9822 169.551 17.7768C169.225 18.5744 169.066 19.5629 169.066 20.7484L168.262 20.786Z" fill="black"/>
<path d="M194.938 19.4222C194.938 20.1698 194.722 20.736 194.294 21.1239C193.865 21.5086 193.246 21.7026 192.436 21.7026H180.946V20.1135H189.764C190.549 20.1135 190.94 19.7663 190.94 19.0687C190.94 17.8112 190.581 16.7946 189.858 16.0251C189.135 15.2525 188.2 14.8677 187.055 14.8677C186.132 14.8677 185.31 15.1148 184.581 15.6059C183.852 16.097 183.286 16.7946 182.879 17.6986C182.476 18.6026 182.272 19.6756 182.272 20.9205C182.272 23.2385 182.848 25.0089 183.999 26.2352C185.15 27.4614 186.649 28.0745 188.491 28.0745C189.761 28.0745 190.828 27.7867 191.685 27.2142C192.545 26.6418 193.174 25.9755 193.571 25.2154C193.746 25.0152 193.89 24.8713 194.009 24.7775C194.128 24.6836 194.262 24.643 194.409 24.6555C194.585 24.6555 194.725 24.7212 194.829 24.8525C194.935 24.9839 194.988 25.1779 194.988 25.4406C194.951 26.4009 194.616 27.3018 193.978 28.1495C193.343 28.9973 192.467 29.6854 191.353 30.2141C190.24 30.7427 188.948 31.0086 187.478 31.0086C185.66 31.0086 184.09 30.6332 182.77 29.8794C181.45 29.1255 180.43 28.0776 179.717 26.7325C179 25.3874 178.644 23.8359 178.644 22.0811C178.644 20.3262 179.007 18.7278 179.736 17.3264C180.464 15.925 181.497 14.8176 182.835 14.0012C184.174 13.1848 185.76 12.7781 187.59 12.7781C189.035 12.7781 190.308 13.0659 191.41 13.6384C192.511 14.2108 193.374 14.9991 193.996 16.0001C194.619 17.0011 194.932 18.1459 194.932 19.4284L194.938 19.4222Z" fill="black"/>
<path d="M156.268 11.5112C155.446 11.5112 154.779 11.2829 154.27 10.8293C153.76 10.3757 153.503 9.78764 153.503 9.06506C153.503 8.34247 153.76 7.77629 154.27 7.32897C154.779 6.88166 155.446 6.65643 156.268 6.65643C157.091 6.65643 157.779 6.88166 158.295 7.32897C158.812 7.77629 159.071 8.35498 159.071 9.06506C159.071 9.77513 158.812 10.3757 158.295 10.8293C157.779 11.2829 157.104 11.5112 156.268 11.5112Z" fill="#FF4D07"/>
</g>
<defs>
<clipPath id="clip0_9_212">
<rect width="194.623" height="34.7436" fill="white" transform="translate(0.37085 0.128174)"/>
</clipPath>
</defs>
</svg>
