<svg width="113" height="43" viewBox="0 0 113 43" fill="none" xmlns="http://www.w3.org/2000/svg">
<path d="M15.9838 32.7734L12.4664 25.4231H12.286L6.37871 32.7734H0.291016L9.98624 21.3195L4.34948 10.6773H10.1666L13.5487 17.6218H13.729L19.3658 10.6773H25.5437L15.9838 21.5901L21.7558 32.7734H15.9838Z" fill="url(#paint0_linear_169_408)"/>
<path d="M26.6784 0.486084H31.6839V10.0911L31.4133 13.6536H31.6839C32.3152 12.6014 33.2471 11.7295 34.4797 11.0381C35.7123 10.3166 37.0801 9.95584 38.5833 9.95584C40.0263 9.95584 41.2739 10.1813 42.3261 10.6322C43.3783 11.0531 44.2501 11.6694 44.9415 12.4811C45.633 13.2928 46.144 14.2698 46.4747 15.4122C46.8054 16.5245 46.9708 17.7571 46.9708 19.1099V32.7734H41.9653V19.7863C41.9653 17.9525 41.5144 16.6298 40.6125 15.8181C39.7407 15.0064 38.6284 14.6005 37.2755 14.6005C36.4037 14.6005 35.6221 14.7959 34.9307 15.1867C34.2693 15.5475 33.6831 16.0435 33.172 16.6749C32.691 17.3062 32.3152 18.0277 32.0446 18.8394C31.8041 19.6511 31.6839 20.4928 31.6839 21.3646V32.7734H26.6784V0.486084Z" fill="black"/>
<path d="M64.6808 30.0678H64.4102C63.7488 30.9396 62.892 31.7363 61.8398 32.4578C60.7876 33.1492 59.4498 33.4949 57.8265 33.4949C56.654 33.4949 55.5567 33.2995 54.5346 32.9087C53.5125 32.548 52.6256 32.0369 51.874 31.3755C51.1225 30.6841 50.5212 29.8874 50.0703 28.9855C49.6494 28.0536 49.439 27.0315 49.439 25.9191C49.439 24.7467 49.6644 23.6945 50.1154 22.7626C50.5964 21.8306 51.2427 21.049 52.0544 20.4177C52.8962 19.7863 53.8882 19.3053 55.0306 18.9747C56.173 18.6139 57.4056 18.4335 58.7283 18.4335C60.2014 18.4335 61.434 18.5838 62.4261 18.8845C63.4181 19.155 64.1697 19.4106 64.6808 19.6511V18.7943C64.6808 18.1329 64.5304 17.5166 64.2298 16.9454C63.9593 16.3742 63.5684 15.8932 63.0574 15.5024C62.5764 15.0815 62.0202 14.7659 61.3889 14.5554C60.7576 14.3149 60.0962 14.1947 59.4048 14.1947C58.2924 14.1947 57.2853 14.4202 56.3835 14.8711C55.5116 15.292 54.73 15.9834 54.0386 16.9454L50.0703 14.33C51.1225 12.887 52.4302 11.8047 53.9935 11.0832C55.5567 10.3316 57.3304 9.95584 59.3146 9.95584C62.5914 9.95584 65.1167 10.7675 66.8904 12.3909C68.6941 14.0143 69.596 16.3291 69.596 19.3354V32.7734H64.6808V30.0678ZM64.6808 23.5742C64.0194 23.1834 63.2828 22.8678 62.4711 22.6273C61.6595 22.3868 60.7275 22.2665 59.6753 22.2665C58.1121 22.2665 56.8645 22.6273 55.9325 23.3488C55.0006 24.0703 54.5346 24.9421 54.5346 25.9642C54.5346 26.5054 54.6548 26.9864 54.8953 27.4072C55.1359 27.7981 55.4365 28.1438 55.7972 28.4444C56.188 28.745 56.624 28.9705 57.105 29.1208C57.616 29.2711 58.1271 29.3463 58.6382 29.3463C59.4498 29.3463 60.2164 29.196 60.938 28.8953C61.6895 28.5647 62.3359 28.1438 62.877 27.6327C63.4181 27.0916 63.854 26.4753 64.1847 25.7839C64.5154 25.0924 64.6808 24.3559 64.6808 23.5742Z" fill="black"/>
<path d="M73.4036 10.6773H78.1385V14.0143H78.4091C78.6796 13.4431 79.0404 12.917 79.4913 12.436C79.9723 11.9249 80.4984 11.5041 81.0696 11.1734C81.6709 10.8126 82.2872 10.5421 82.9185 10.3617C83.5799 10.1512 84.2112 10.046 84.8124 10.046C85.5339 10.046 86.1502 10.1062 86.6613 10.2264C87.1724 10.3467 87.6383 10.512 88.0592 10.7224L86.6162 15.3671C86.2855 15.2168 85.9097 15.1116 85.4889 15.0515C85.098 14.9613 84.617 14.9162 84.0458 14.9162C83.2341 14.9162 82.4826 15.0815 81.7911 15.4122C81.1298 15.7429 80.5435 16.1939 80.0325 16.765C79.5214 17.3362 79.1156 18.0126 78.8149 18.7943C78.5444 19.5759 78.4091 20.4026 78.4091 21.2744V32.7734H73.4036V10.6773Z" fill="black"/>
<path d="M89.672 10.6773H94.4069V13.5183H94.6775C95.2787 12.5563 96.1956 11.7295 97.4282 11.0381C98.6608 10.3166 100.134 9.95584 101.847 9.95584C103.26 9.95584 104.598 10.2565 105.861 10.8577C107.153 11.4289 108.281 12.2406 109.243 13.2928C110.205 14.345 110.971 15.5926 111.543 17.0356C112.114 18.4486 112.399 20.0118 112.399 21.7254C112.399 23.439 112.114 25.0173 111.543 26.4603C110.971 27.8732 110.205 29.1058 109.243 30.158C108.281 31.2102 107.153 32.0369 105.861 32.6382C104.598 33.2093 103.26 33.4949 101.847 33.4949C100.134 33.4949 98.6608 33.1492 97.4282 32.4578C96.1956 31.7363 95.2787 30.8945 94.6775 29.9325H94.4069L94.6775 32.9989V42.5138H89.672V10.6773ZM100.9 28.8503C101.742 28.8503 102.554 28.6849 103.336 28.3542C104.147 28.0235 104.839 27.5576 105.41 26.9563C106.011 26.325 106.492 25.5734 106.853 24.7016C107.214 23.8298 107.394 22.8377 107.394 21.7254C107.394 20.6131 107.214 19.621 106.853 18.7492C106.492 17.8774 106.011 17.1408 105.41 16.5396C104.839 15.9083 104.147 15.4273 103.336 15.0966C102.554 14.7659 101.742 14.6005 100.9 14.6005C100.029 14.6005 99.2019 14.7659 98.4203 15.0966C97.6386 15.4273 96.9472 15.8932 96.346 16.4945C95.7748 17.0957 95.3088 17.8473 94.948 18.7492C94.5873 19.621 94.4069 20.6131 94.4069 21.7254C94.4069 22.8377 94.5873 23.8448 94.948 24.7467C95.3088 25.6185 95.7748 26.355 96.346 26.9563C96.9472 27.5576 97.6386 28.0235 98.4203 28.3542C99.2019 28.6849 100.029 28.8503 100.9 28.8503Z" fill="black"/>
<defs>
<linearGradient id="paint0_linear_169_408" x1="20.2214" y1="12.9034" x2="-29.6871" y2="61.067" gradientUnits="userSpaceOnUse">
<stop offset="0.0802009" stop-color="#C7B4E3"/>
<stop offset="0.609586" stop-color="#6A3788"/>
<stop offset="1" stop-color="#666666"/>
</linearGradient>
</defs>
</svg>
